HIERARCHY
ROOT Hips
{
	OFFSET 0.000000 0.000007 97.120003
	CHANNELS 6 Xposition Yposition Zposition Yrotation Xrotation Zrotation
	JOINT RightUpLeg
	{
		OFFSET -11.000000 0.000000 0.000000
		CHANNELS 3 Yrotation Xrotation Zrotation
		JOINT RightLeg
		{
			OFFSET 0.000000 -0.000003 -45.062000
			CHANNELS 3 Yrotation Xrotation Zrotation
			JOINT RightFoot
			{
				OFFSET 0.000000 -0.000003 -42.057999
				CHANNELS 3 Yrotation Xrotation Zrotation
				End Site
				{
					OFFSET 0.000000 -15.120001 -9.999999
				}
			}
		}
	}
	JOINT LeftUpLeg
	{
		OFFSET 11.000000 0.000000 0.000000
		CHANNELS 3 Yrotation Xrotation Zrotation
		JOINT LeftLeg
		{
			OFFSET 0.000000 -0.000003 -45.062000
			CHANNELS 3 Yrotation Xrotation Zrotation
			JOINT LeftFoot
			{
				OFFSET 0.000000 -0.000003 -42.057999
				CHANNELS 3 Yrotation Xrotation Zrotation
				End Site
				{
					OFFSET 0.000000 -15.120001 -9.999999
				}
			}
		}
	}
	JOINT Spine
	{
		OFFSET 0.000000 0.000001 8.120003
		CHANNELS 3 Yrotation Xrotation Zrotation
		JOINT Spine1
		{
			OFFSET 0.000000 0.000001 17.979996
			CHANNELS 3 Yrotation Xrotation Zrotation
			JOINT Spine2
			{
				OFFSET 0.000000 0.000001 12.759995
				CHANNELS 3 Yrotation Xrotation Zrotation
				JOINT Neck
				{
					OFFSET 0.000000 0.000001 19.139999
					CHANNELS 3 Yrotation Xrotation Zrotation
					JOINT Neck1
					{
						OFFSET 0.000000 0.000000 4.250000
						CHANNELS 3 Yrotation Xrotation Zrotation
						JOINT Head
						{
							OFFSET 0.000000 0.000000 4.250000
							CHANNELS 3 Yrotation Xrotation Zrotation
							End Site
							{
								OFFSET 0.000000 0.000001 19.119995
							}
						}
					}
				}
				JOINT RightShoulder
				{
					OFFSET -2.900000 0.000001 13.339996
					CHANNELS 3 Yrotation Xrotation Zrotation
					JOINT RightArm
					{
						OFFSET -16.100000 0.000000 0.000000
						CHANNELS 3 Yrotation Xrotation Zrotation
						JOINT RightForeArm
						{
							OFFSET -28.000000 0.000000 0.000000
							CHANNELS 3 Yrotation Xrotation Zrotation
							JOINT RightHand
							{
								OFFSET -26.000000 0.000000 0.000000
								CHANNELS 3 Yrotation Xrotation Zrotation
								JOINT RightHandThumb1
								{
									OFFSET -1.936996 -2.518000 -0.483994
									CHANNELS 3 Yrotation Xrotation Zrotation
									JOINT RightHandThumb2
									{
										OFFSET -3.872002 0.000000 0.000000
										CHANNELS 3 Yrotation Xrotation Zrotation
										JOINT RightHandThumb3
										{
											OFFSET -2.690002 0.000000 0.000000
											CHANNELS 3 Yrotation Xrotation Zrotation
											End Site
											{
												OFFSET -2.537003 0.000000 0.000000
											}
										}
									}
								}
								JOINT RightInHandIndex
								{
									OFFSET -3.389000 -2.080000 0.535004
									CHANNELS 3 Yrotation Xrotation Zrotation
									JOINT RightHandIndex1
									{
										OFFSET -5.485001 -1.051000 -0.095993
										CHANNELS 3 Yrotation Xrotation Zrotation
										JOINT RightHandIndex2
										{
											OFFSET -3.806000 0.000000 0.000000
											CHANNELS 3 Yrotation Xrotation Zrotation
											JOINT RightHandIndex3
											{
												OFFSET -2.157997 0.000000 0.000000
												CHANNELS 3 Yrotation Xrotation Zrotation
												End Site
												{
													OFFSET -1.898003 0.000000 0.000000
												}
											}
										}
									}
								}
								JOINT RightInHandMiddle
								{
									OFFSET -3.556000 -0.796000 0.544006
									CHANNELS 3 Yrotation Xrotation Zrotation
									JOINT RightHandMiddle1
									{
										OFFSET -5.441002 -0.330000 -0.087997
										CHANNELS 3 Yrotation Xrotation Zrotation
										JOINT RightHandMiddle2
										{
											OFFSET -4.153000 0.000000 0.000000
											CHANNELS 3 Yrotation Xrotation Zrotation
											JOINT RightHandMiddle3
											{
												OFFSET -2.602997 0.000000 0.000000
												CHANNELS 3 Yrotation Xrotation Zrotation
												End Site
												{
													OFFSET -2.075996 0.000000 0.000000
												}
											}
										}
									}
								}
								JOINT RightInHandRing
								{
									OFFSET -3.539001 0.136000 0.565994
									CHANNELS 3 Yrotation Xrotation Zrotation
									JOINT RightHandRing1
									{
										OFFSET -4.873001 0.504000 -0.022995
										CHANNELS 3 Yrotation Xrotation Zrotation
										JOINT RightHandRing2
										{
											OFFSET -3.619003 0.000000 0.000000
											CHANNELS 3 Yrotation Xrotation Zrotation
											JOINT RightHandRing3
											{
												OFFSET -2.511002 0.000000 0.000000
												CHANNELS 3 Yrotation Xrotation Zrotation
												End Site
												{
													OFFSET -1.952003 0.000000 0.000000
												}
											}
										}
									}
								}
								JOINT RightInHandPinky
								{
									OFFSET -3.323997 1.264000 0.494003
									CHANNELS 3 Yrotation Xrotation Zrotation
									JOINT RightHandPinky1
									{
										OFFSET -4.353996 1.147000 -0.022995
										CHANNELS 3 Yrotation Xrotation Zrotation
										JOINT RightHandPinky2
										{
											OFFSET -2.898003 0.000000 0.000000
											CHANNELS 3 Yrotation Xrotation Zrotation
											JOINT RightHandPinky3
											{
												OFFSET -1.831001 0.000000 0.000000
												CHANNELS 3 Yrotation Xrotation Zrotation
												End Site
												{
													OFFSET -1.730003 0.000000 0.000000
												}
											}
										}
									}
								}
							}
						}
					}
				}
				JOINT LeftShoulder
				{
					OFFSET 2.900000 0.000001 13.339996
					CHANNELS 3 Yrotation Xrotation Zrotation
					JOINT LeftArm
					{
						OFFSET 16.100000 0.000000 0.000000
						CHANNELS 3 Yrotation Xrotation Zrotation
						JOINT LeftForeArm
						{
							OFFSET 28.000000 0.000000 0.000000
							CHANNELS 3 Yrotation Xrotation Zrotation
							JOINT LeftHand
							{
								OFFSET 26.000000 0.000000 0.000000
								CHANNELS 3 Yrotation Xrotation Zrotation
								JOINT LeftHandThumb1
								{
									OFFSET 1.936996 -2.518000 -0.483994
									CHANNELS 3 Yrotation Xrotation Zrotation
									JOINT LeftHandThumb2
									{
										OFFSET 3.872002 0.000000 0.000000
										CHANNELS 3 Yrotation Xrotation Zrotation
										JOINT LeftHandThumb3
										{
											OFFSET 2.690002 0.000000 0.000000
											CHANNELS 3 Yrotation Xrotation Zrotation
											End Site
											{
												OFFSET 2.537003 0.000000 0.000000
											}
										}
									}
								}
								JOINT LeftInHandIndex
								{
									OFFSET 3.389000 -2.080000 0.535004
									CHANNELS 3 Yrotation Xrotation Zrotation
									JOINT LeftHandIndex1
									{
										OFFSET 5.485001 -1.051000 -0.095993
										CHANNELS 3 Yrotation Xrotation Zrotation
										JOINT LeftHandIndex2
										{
											OFFSET 3.806000 0.000000 0.000000
											CHANNELS 3 Yrotation Xrotation Zrotation
											JOINT LeftHandIndex3
											{
												OFFSET 2.157997 0.000000 0.000000
												CHANNELS 3 Yrotation Xrotation Zrotation
												End Site
												{
													OFFSET 1.898003 0.000000 0.000000
												}
											}
										}
									}
								}
								JOINT LeftInHandMiddle
								{
									OFFSET 3.556000 -0.796000 0.544006
									CHANNELS 3 Yrotation Xrotation Zrotation
									JOINT LeftHandMiddle1
									{
										OFFSET 5.441002 -0.330000 -0.087997
										CHANNELS 3 Yrotation Xrotation Zrotation
										JOINT LeftHandMiddle2
										{
											OFFSET 4.153000 0.000000 0.000000
											CHANNELS 3 Yrotation Xrotation Zrotation
											JOINT LeftHandMiddle3
											{
												OFFSET 2.602997 0.000000 0.000000
												CHANNELS 3 Yrotation Xrotation Zrotation
												End Site
												{
													OFFSET 2.075996 0.000000 0.000000
												}
											}
										}
									}
								}
								JOINT LeftInHandRing
								{
									OFFSET 3.539001 0.136000 0.565994
									CHANNELS 3 Yrotation Xrotation Zrotation
									JOINT LeftHandRing1
									{
										OFFSET 4.873001 0.504000 -0.022995
										CHANNELS 3 Yrotation Xrotation Zrotation
										JOINT LeftHandRing2
										{
											OFFSET 3.619003 0.000000 0.000000
											CHANNELS 3 Yrotation Xrotation Zrotation
											JOINT LeftHandRing3
											{
												OFFSET 2.511002 0.000000 0.000000
												CHANNELS 3 Yrotation Xrotation Zrotation
												End Site
												{
													OFFSET 1.952003 0.000000 0.000000
												}
											}
										}
									}
								}
								JOINT LeftInHandPinky
								{
									OFFSET 3.323997 1.264000 0.494003
									CHANNELS 3 Yrotation Xrotation Zrotation
									JOINT LeftHandPinky1
									{
										OFFSET 4.353996 1.147000 -0.022995
										CHANNELS 3 Yrotation Xrotation Zrotation
										JOINT LeftHandPinky2
										{
											OFFSET 2.898003 0.000000 0.000000
											CHANNELS 3 Yrotation Xrotation Zrotation
											JOINT LeftHandPinky3
											{
												OFFSET 1.831001 0.000000 0.000000
												CHANNELS 3 Yrotation Xrotation Zrotation
												End Site
												{
													OFFSET 1.730003 0.000000 0.000000
												}
											}
										}
									}
								}
							}
						}
					}
				}
			}
		}
	}
}
MOTION
Frames: 6
Frame Time: 0.033367
-2.436790 -4.558173 93.294907 -0.804039 5.732267 -1.995152 8.534536 -8.007244 -27.732376 8.404413 28.564051 -99.830161 0.379078 5.201370 127.339260 -9.590347 -7.816500 29.075077 -7.449919 27.174664 100.277129 -2.315233 4.797410 -127.568044 -0.889796 -4.749955 -0.529528 -0.610276 -4.029649 -0.534680 -0.000687 7.311760 0.001317 0.021865 -8.390954 0.279244 9.619683 -10.661218 -1.796588 -10.081186 2.893551 -2.901163 12.100879 -26.329543 -33.587312 -46.538187 1.519759 43.833955 -0.030601 -0.013722 97.342504 15.126168 8.246545 7.686940 41.283572 62.531044 88.268194 -8.844753 -20.500965 -2.354573 170.254773 40.123007 -15.058962 0.000001 0.000003 0.000001 -36.299074 21.393092 0.117743 -13.348750 0.267168 -1.330366 11.385336 1.845869 -2.290640 -0.000002 0.000003 0.000001 -32.070907 15.333165 -6.471329 -18.618081 1.108252 -0.904106 11.448383 0.685224 -0.900282 0.000000 0.000003 -0.000000 -35.596692 11.502687 -11.426919 -9.888987 1.651579 -0.796600 11.458978 -0.035838 0.283146 0.000001 0.000002 0.000001 -45.627474 3.667987 -11.482996 -6.933796 1.571955 -6.395497 11.334585 -2.116601 3.369173 -12.100723 -26.340257 33.576162 55.568548 35.966629 17.288109 -0.008037 0.011317 -36.124116 -203.271498 -77.566169 224.409417 -87.826650 51.724381 -97.314240 33.953482 -27.198959 -46.651223 -95.769053 36.715579 14.349555 0.000002 0.000001 -0.000002 9.117948 21.768180 -6.291185 11.301436 1.720323 -5.238980 -47.806581 -0.357965 3.143734 0.000001 0.000004 -0.000001 11.941752 16.055133 1.744469 11.367422 2.901374 -1.811653 -36.464269 -0.987340 0.273362 0.000000 0.000003 -0.000003 13.596907 12.065025 10.125388 11.616271 4.655898 1.934812 11.410327 0.582568 -4.791617 0.000001 0.000001 -0.000004 12.512046 5.179616 11.506781 11.628104 1.025421 9.356661 10.984008 8.378503 -3.257406 
-2.665810 -4.358673 93.321609 -0.781143 5.943159 -1.375352 8.437615 -8.191956 -28.095797 8.392463 28.547474 -99.837784 0.424012 5.262153 127.342211 -9.694440 -8.271326 28.846177 -7.406925 27.111261 100.297407 -2.403813 4.601087 -127.538155 -0.844481 -4.728555 -0.147521 -0.596569 -3.996841 -0.212291 -0.000689 7.311759 0.001315 -0.131565 -7.608921 0.567882 9.689806 -10.868460 -1.844746 -10.137174 3.543266 -3.131662 12.100881 -26.329539 -33.587322 -46.524820 0.673779 38.509675 -0.031169 -0.013436 98.996318 18.880907 3.224306 4.660845 40.519868 63.614715 86.542308 -10.129469 -20.632618 -2.511303 170.173726 40.352498 -15.111317 0.000001 0.000002 -0.000002 -37.102844 21.108563 -0.867030 -13.225658 0.192780 -1.418392 11.381394 1.924579 -2.314138 0.000002 0.000004 -0.000000 -32.231393 15.272310 -6.689380 -17.910112 1.117348 -0.916647 11.447628 0.727409 -0.907779 0.000001 0.000009 -0.000001 -35.730601 11.447642 -11.561248 -9.098084 1.653532 -0.800881 11.458991 -0.034854 0.285825 0.000001 0.000004 0.000001 -45.153332 3.770770 -11.484347 -6.859189 1.581304 -6.277393 11.333598 -2.127599 3.378350 -12.100723 -26.340256 33.576165 55.027856 36.358623 15.541243 -0.007770 0.011122 -35.310316 -211.794030 -79.186365 233.785627 -87.485482 52.097189 -97.079446 34.522443 -26.398852 -46.041981 -95.549900 36.995726 14.403371 -0.000000 -0.000002 0.000005 9.087851 21.693318 -6.392211 11.323855 1.592049 -4.858688 -49.408673 -0.117024 3.074050 0.000002 -0.000001 0.000005 11.753907 16.083591 1.063836 11.380684 2.654927 -1.693870 -39.969420 -0.779068 0.407919 0.000000 -0.000000 0.000004 13.562404 12.107169 9.931701 11.594480 4.574359 1.696357 11.442105 0.215242 -4.532233 0.000000 -0.000002 0.000002 12.522957 5.233063 11.507773 11.672226 1.323527 9.146075 10.938384 7.858064 -3.803595 
-2.868660 -4.189734 93.346001 -0.781052 6.228360 -0.777483 8.377241 -8.437460 -28.407517 8.378536 28.526939 -99.842530 0.453396 5.321115 127.356786 -9.753383 -8.742006 28.802071 -7.345798 27.020633 100.325001 -2.499826 4.416142 -127.508963 -0.776082 -4.733554 0.335046 -0.550469 -3.990727 0.277431 -0.000686 7.311760 0.001315 0.133154 -6.688469 0.989152 9.759693 -11.090624 -1.895837 -10.161678 4.190943 -3.280812 12.100883 -26.329549 -33.587312 -46.886718 -0.421842 32.114190 -0.031391 -0.013315 99.620522 22.882187 -2.297468 1.739576 39.613943 64.763744 84.644130 -11.635460 -20.794900 -2.437491 170.132417 40.468844 -15.138091 -0.000000 -0.000001 -0.000000 -38.406994 20.888597 -1.850041 -13.551514 0.125175 -1.455084 11.380671 1.934508 -2.324080 0.000000 -0.000000 -0.000001 -33.119649 15.277142 -6.908105 -17.548253 1.134818 -0.921975 11.447121 0.757598 -0.910790 0.000002 0.000001 -0.000000 -36.275917 11.374410 -11.691923 -8.689515 1.650229 -0.938464 11.459159 -0.000776 0.279595 -0.000000 -0.000005 0.000001 -45.043195 3.790953 -11.484634 -6.827222 1.582525 -6.262700 11.333417 -2.129409 3.380337 -12.100729 -26.340263 33.576172 54.518891 36.938780 13.451456 -0.007394 0.010837 -34.090628 -227.877350 -81.488118 250.628928 -86.155378 53.197079 -96.109846 33.744529 -25.207706 -43.898469 -94.905144 37.555245 14.513180 -0.000002 0.000000 0.000000 9.168976 21.429234 -6.246916 11.346944 1.457997 -4.401143 -50.983821 0.129855 2.973616 -0.000001 0.000004 0.000003 11.617325 16.022002 0.573012 11.396182 2.412731 -1.495609 -43.787629 -0.551761 0.514470 -0.000001 0.000004 0.000002 13.536421 12.138941 9.786433 11.572743 4.536590 1.435862 6.976660 -0.230077 -4.253560 -0.000001 0.000002 -0.000002 12.529153 5.263252 11.508339 11.725536 1.694815 8.933263 10.889118 7.190083 -4.544928 
-3.022110 -4.048913 93.372002 -0.809967 6.584057 -0.217353 8.381764 -8.740271 -28.655816 8.350999 28.487765 -99.856935 0.482783 5.376961 127.360953 -9.764134 -9.284048 28.448192 -7.266600 26.902365 100.358688 -2.602880 4.229815 -127.492653 -0.657376 -4.778580 0.771261 -0.443213 -4.048427 0.652806 -0.000685 7.311758 0.001318 0.795645 -5.583095 1.905810 9.827406 -11.327526 -1.949498 -10.148790 4.822848 -3.352431 12.100879 -26.329539 -33.587319 -47.498379 -1.110490 25.297638 -0.030977 -0.013531 98.444999 27.099196 -8.126409 -0.974274 38.906110 65.480265 83.249467 -13.313029 -20.948450 -2.308565 170.022793 40.775676 -15.209464 0.000002 0.000002 -0.000000 -40.609231 20.752157 -2.920940 -14.702310 0.026855 -1.435689 11.382900 1.874926 -2.329406 0.000001 0.000003 -0.000001 -34.857625 15.288159 -7.289495 -18.172208 1.140745 -0.927878 11.446892 0.772666 -0.909585 0.000000 0.000005 -0.000003 -37.744599 11.198464 -11.684663 -9.437995 1.575790 -1.498918 11.459410 0.058736 0.241215 0.000001 0.000001 -0.000003 -45.534033 3.671344 -11.483026 -6.856339 1.569614 -6.430440 11.334625 -2.115135 3.370420 -12.100723 -26.340252 33.576165 54.187743 37.417993 11.589304 -0.006939 0.010471 -32.591931 -263.545226 -83.389185 286.702327 -83.311956 55.355838 -93.928113 29.933342 -23.642597 -39.797371 -92.891625 38.945640 14.799869 0.000001 -0.000005 0.000002 9.380324 20.984527 -5.787684 11.371993 1.338534 -3.726319 -52.023604 0.369683 2.805001 0.000004 -0.000001 -0.000001 11.576370 15.862669 0.428796 11.412391 2.205831 -1.214876 -47.086884 -0.348794 0.573833 0.000001 -0.000000 0.000003 13.527639 12.150352 9.736961 11.554743 4.567684 1.200179 0.803270 -0.696757 -3.986740 0.000002 -0.000003 -0.000001 12.525583 5.245867 11.508007 11.781087 2.086544 8.772961 10.848973 6.416506 -5.443823 
-3.114230 -3.930523 93.398499 -0.859807 6.991041 0.238148 8.441132 -9.087508 -28.967553 8.320314 28.443261 -99.870159 0.512875 5.416814 127.374531 -9.716621 -9.815543 28.352021 -7.187184 26.784696 100.396336 -2.699800 4.053972 -127.464171 -0.489558 -4.833197 1.109701 -0.333580 -4.097599 0.927637 -0.000687 7.311762 0.001312 1.819248 -4.429505 3.247823 9.891096 -11.579022 -2.005339 -10.091789 5.426664 -3.348546 12.100884 -26.329541 -33.587322 -48.071626 -0.959534 18.445426 -0.029695 -0.014116 94.869395 31.399271 -14.118337 -3.459383 38.799296 65.516390 83.078166 -15.273275 -21.071134 -2.218345 169.751156 41.523428 -15.388230 0.000000 0.000000 -0.000000 -43.651466 20.531231 -4.307795 -17.075862 -0.098708 -1.356234 11.387640 1.765395 -2.320408 -0.000000 0.000000 0.000002 -37.514114 15.105611 -8.258160 -20.608148 1.086662 -0.939387 11.447760 0.724907 -0.900880 0.000002 0.000003 -0.000002 -40.168776 10.877609 -11.671744 -12.457369 1.344663 -2.425790 11.459366 0.076748 0.167214 -0.000000 -0.000000 0.000002 -46.806289 3.355857 -11.479118 -8.062870 1.393555 -6.885740 11.342586 -2.029451 3.288179 -12.100723 -26.340257 33.576162 54.249843 37.669309 10.108424 -0.006439 0.010020 -30.863726 -313.439020 -80.894916 336.790617 -78.197955 58.862912 -89.706523 25.443068 -21.859785 -33.775787 -90.808390 39.497618 14.919425 -0.000006 -0.000003 -0.000003 9.696090 20.429798 -5.039453 11.390152 1.243487 -3.176677 -52.106366 0.530058 2.668848 -0.000002 0.000000 -0.000002 11.647392 15.640616 0.698139 11.426250 2.054725 -0.917394 -49.118588 -0.198832 0.592821 -0.000003 0.000001 -0.000002 13.546318 12.133447 9.836482 11.542643 4.703045 1.018243 -5.844551 -1.141592 -3.782929 -0.000004 -0.000000 -0.000001 12.521297 5.224909 11.507624 11.846887 2.554607 8.633136 8.689698 5.533935 -6.480685 
-3.148240 -3.834314 93.420403 -0.906346 7.414881 0.606000 8.523706 -9.464786 -29.165662 8.291200 28.401930 -99.885820 0.547615 5.452637 127.376348 -9.645153 -10.356167 28.291041 -7.142602 26.718004 100.415713 -2.778435 3.912469 -127.446918 -0.305832 -4.865344 1.407136 -0.224120 -4.118765 1.172355 -0.000688 7.311757 0.001315 2.994526 -3.347315 4.714206 9.949695 -11.845403 -2.063185 -9.982451 5.992125 -3.268349 12.100884 -26.329548 -33.587319 -48.434596 1.007794 11.977356 -0.026979 -0.014836 87.471405 35.595787 -21.436289 -4.896983 39.492731 64.567677 84.454709 -18.014639 -21.161516 -2.201028 169.261172 42.828196 -15.717218 0.000001 0.000000 -0.000002 -47.718635 19.741772 -6.831586 -20.698144 -0.334115 -1.252387 11.396069 1.574162 -2.295700 0.000003 0.000002 -0.000002 -41.064692 14.392353 -10.354542 -25.449087 0.901212 -0.994893 11.449454 0.625887 -0.888815 0.000003 0.000006 -0.000003 -43.603320 10.334643 -11.650743 -19.025355 0.695830 -3.678221 11.459196 0.063147 0.030417 0.000002 0.000001 0.000001 -48.928583 2.796395 -11.472995 -13.380512 0.555214 -7.993625 11.382531 -1.522519 2.881309 -12.100725 -26.340263 33.576165 54.846696 37.730071 9.041063 -0.005921 0.009539 -29.039027 -337.400635 -73.114648 360.914900 -71.722922 62.917490 -83.923723 21.854614 -20.423825 -27.731314 -89.796026 38.902807 14.790727 -0.000001 -0.000002 0.000002 10.038366 19.899568 -4.167719 11.412556 1.158652 -2.303010 -50.922137 0.703787 2.448813 -0.000000 -0.000002 0.000004 11.800066 15.434414 1.280781 11.434400 1.987098 -0.713976 -49.370680 -0.137852 0.583420 0.000001 0.000003 0.000001 13.599166 12.075747 10.127241 11.539408 4.978109 0.924885 -11.772436 -1.544713 -3.714754 0.000000 -0.000000 0.000000 12.535867 5.296146 11.508954 11.935275 3.237058 8.372036 3.156024 4.478672 -7.620761 
